<mxfile host="app.diagrams.net" modified="2022-03-03T20:43:15.726Z" agent="5.0 (Windows NT 10.0; Win64; x64) AppleWebKit/537.36 (KHTML, like Gecko) Chrome/98.0.4758.102 Safari/537.36" etag="E7H8UwoTi5TTefeMMtDs" version="16.6.5" type="github">
  <diagram id="C5RBs43oDa-KdzZeNtuy" name="Page-1">
    <mxGraphModel dx="1209" dy="818" grid="1" gridSize="10" guides="1" tooltips="1" connect="1" arrows="1" fold="1" page="1" pageScale="1" pageWidth="827" pageHeight="1169" math="0" shadow="0">
      <root>
        <mxCell id="WIyWlLk6GJQsqaUBKTNV-0" />
        <mxCell id="WIyWlLk6GJQsqaUBKTNV-1" parent="WIyWlLk6GJQsqaUBKTNV-0" />
        <mxCell id="-if85ICURxpPtWQL68ot-1" value="" style="ellipse;whiteSpace=wrap;html=1;aspect=fixed;" vertex="1" parent="WIyWlLk6GJQsqaUBKTNV-1">
          <mxGeometry x="560" y="150" width="80" height="80" as="geometry" />
        </mxCell>
        <mxCell id="-if85ICURxpPtWQL68ot-15" style="edgeStyle=orthogonalEdgeStyle;rounded=0;orthogonalLoop=1;jettySize=auto;html=1;entryX=0.389;entryY=1.041;entryDx=0;entryDy=0;entryPerimeter=0;" edge="1" parent="WIyWlLk6GJQsqaUBKTNV-1" source="-if85ICURxpPtWQL68ot-2" target="-if85ICURxpPtWQL68ot-4">
          <mxGeometry relative="1" as="geometry">
            <mxPoint x="210" y="370" as="targetPoint" />
          </mxGeometry>
        </mxCell>
        <mxCell id="-if85ICURxpPtWQL68ot-2" value="Повар" style="ellipse;whiteSpace=wrap;html=1;aspect=fixed;" vertex="1" parent="WIyWlLk6GJQsqaUBKTNV-1">
          <mxGeometry x="360" y="330" width="80" height="80" as="geometry" />
        </mxCell>
        <mxCell id="-if85ICURxpPtWQL68ot-24" style="edgeStyle=orthogonalEdgeStyle;rounded=0;orthogonalLoop=1;jettySize=auto;html=1;entryX=0.5;entryY=0;entryDx=0;entryDy=0;" edge="1" parent="WIyWlLk6GJQsqaUBKTNV-1" source="-if85ICURxpPtWQL68ot-3" target="-if85ICURxpPtWQL68ot-2">
          <mxGeometry relative="1" as="geometry" />
        </mxCell>
        <mxCell id="-if85ICURxpPtWQL68ot-25" style="edgeStyle=orthogonalEdgeStyle;rounded=0;orthogonalLoop=1;jettySize=auto;html=1;entryX=0;entryY=0.5;entryDx=0;entryDy=0;" edge="1" parent="WIyWlLk6GJQsqaUBKTNV-1" source="-if85ICURxpPtWQL68ot-3" target="-if85ICURxpPtWQL68ot-1">
          <mxGeometry relative="1" as="geometry" />
        </mxCell>
        <mxCell id="-if85ICURxpPtWQL68ot-26" style="edgeStyle=orthogonalEdgeStyle;rounded=0;orthogonalLoop=1;jettySize=auto;html=1;entryX=0.389;entryY=-0.039;entryDx=0;entryDy=0;entryPerimeter=0;" edge="1" parent="WIyWlLk6GJQsqaUBKTNV-1" source="-if85ICURxpPtWQL68ot-3" target="-if85ICURxpPtWQL68ot-4">
          <mxGeometry relative="1" as="geometry">
            <mxPoint x="220" y="190" as="targetPoint" />
          </mxGeometry>
        </mxCell>
        <mxCell id="-if85ICURxpPtWQL68ot-3" value="Админимстратор -касср" style="ellipse;whiteSpace=wrap;html=1;aspect=fixed;" vertex="1" parent="WIyWlLk6GJQsqaUBKTNV-1">
          <mxGeometry x="360" y="150" width="80" height="80" as="geometry" />
        </mxCell>
        <mxCell id="-if85ICURxpPtWQL68ot-4" value="Шеф -повар" style="ellipse;whiteSpace=wrap;html=1;aspect=fixed;" vertex="1" parent="WIyWlLk6GJQsqaUBKTNV-1">
          <mxGeometry x="180" y="240" width="80" height="80" as="geometry" />
        </mxCell>
        <mxCell id="-if85ICURxpPtWQL68ot-5" value="&lt;span style=&quot;color: rgb(33 , 37 , 41) ; font-family: &amp;#34;arial&amp;#34; , &amp;#34;helvetica neue&amp;#34; , sans-serif ; font-size: 16px ; text-align: left ; background-color: rgb(255 , 255 , 255)&quot;&gt;добавлять, заменять, искать по имени, читать все сохраненные данные по блюдам. Готовит блюда&lt;/span&gt;" style="text;html=1;strokeColor=none;fillColor=none;align=center;verticalAlign=middle;whiteSpace=wrap;rounded=0;" vertex="1" parent="WIyWlLk6GJQsqaUBKTNV-1">
          <mxGeometry x="490" y="360" width="60" height="30" as="geometry" />
        </mxCell>
        <mxCell id="-if85ICURxpPtWQL68ot-8" value="Официант" style="text;html=1;strokeColor=none;fillColor=none;align=center;verticalAlign=middle;whiteSpace=wrap;rounded=0;" vertex="1" parent="WIyWlLk6GJQsqaUBKTNV-1">
          <mxGeometry x="570" y="175" width="60" height="30" as="geometry" />
        </mxCell>
        <mxCell id="-if85ICURxpPtWQL68ot-9" value="Приём заказов" style="text;html=1;strokeColor=none;fillColor=none;align=center;verticalAlign=middle;whiteSpace=wrap;rounded=0;" vertex="1" parent="WIyWlLk6GJQsqaUBKTNV-1">
          <mxGeometry x="670" y="170" width="60" height="30" as="geometry" />
        </mxCell>
        <mxCell id="-if85ICURxpPtWQL68ot-10" value="" style="shape=curlyBracket;whiteSpace=wrap;html=1;rounded=1;size=0.5;" vertex="1" parent="WIyWlLk6GJQsqaUBKTNV-1">
          <mxGeometry x="650" y="130" width="20" height="120" as="geometry" />
        </mxCell>
        <mxCell id="-if85ICURxpPtWQL68ot-18" value="" style="shape=curlyBracket;whiteSpace=wrap;html=1;rounded=1;flipH=1;size=0.5;" vertex="1" parent="WIyWlLk6GJQsqaUBKTNV-1">
          <mxGeometry x="160" y="220" width="20" height="120" as="geometry" />
        </mxCell>
        <mxCell id="-if85ICURxpPtWQL68ot-21" value="Хранит информацию по рецептам блюд, технологичным картам,&amp;nbsp;" style="text;html=1;strokeColor=none;fillColor=none;align=center;verticalAlign=middle;whiteSpace=wrap;rounded=0;" vertex="1" parent="WIyWlLk6GJQsqaUBKTNV-1">
          <mxGeometry x="30" y="237.5" width="130" height="85" as="geometry" />
        </mxCell>
        <mxCell id="-if85ICURxpPtWQL68ot-22" value="" style="shape=curlyBracket;whiteSpace=wrap;html=1;rounded=1;size=0.5;" vertex="1" parent="WIyWlLk6GJQsqaUBKTNV-1">
          <mxGeometry x="440" y="310" width="20" height="120" as="geometry" />
        </mxCell>
        <mxCell id="-if85ICURxpPtWQL68ot-27" value="" style="shape=curlyBracket;whiteSpace=wrap;html=1;rounded=1;flipH=1;size=0.5;rotation=90;" vertex="1" parent="WIyWlLk6GJQsqaUBKTNV-1">
          <mxGeometry x="390" y="70" width="20" height="120" as="geometry" />
        </mxCell>
        <mxCell id="-if85ICURxpPtWQL68ot-28" value="Управляет закусочной, запускает в работу заказы, закрывает столы" style="text;html=1;strokeColor=none;fillColor=none;align=center;verticalAlign=middle;whiteSpace=wrap;rounded=0;" vertex="1" parent="WIyWlLk6GJQsqaUBKTNV-1">
          <mxGeometry x="295" y="90" width="210" height="30" as="geometry" />
        </mxCell>
      </root>
    </mxGraphModel>
  </diagram>
</mxfile>
